<svg xmlns="http://www.w3.org/2000/svg" xmlns:xlink="http://www.w3.org/1999/xlink" width="12" height="12" viewBox="0 0 12 12">
  <defs>
    <path id="search-a" d="M8,7.947 C7.991,7.955 7.981,7.964 7.973,7.973 C7.963,7.982 7.955,7.991 7.946,8.001 C7.315,8.619 6.451,9 5.5,9 C3.57,9 2,7.43 2,5.5 C2,3.571 3.57,2 5.5,2 C7.429,2 9,3.571 9,5.5 C9,6.451 8.618,7.316 8,7.947 M11.707,10.293 L10.03,8.616 C10.641,7.73 11,6.656 11,5.5 C11,2.468 8.532,0 5.5,0 C2.467,0 0,2.468 0,5.5 C0,8.533 2.467,11 5.5,11 C6.655,11 7.729,10.642 8.615,10.03 L10.292,11.707 C10.488,11.903 10.744,12 11,12 C11.255,12 11.511,11.903 11.707,11.707 C12.097,11.317 12.097,10.684 11.707,10.293"/>
  </defs>
  <use fill-rule="evenodd" xlink:href="#search-a"/>
</svg>
